<?xml version="1.0" standalone="no"?>
<!DOCTYPE svg PUBLIC "-//W3C//DTD SVG 20010904//EN"
 "http://www.w3.org/TR/2001/REC-SVG-20010904/DTD/svg10.dtd">
<svg version="1.0" xmlns="http://www.w3.org/2000/svg"
 width="213.000000pt" height="163.000000pt" viewBox="0 0 213.000000 163.000000"
 preserveAspectRatio="xMidYMid meet">
<metadata>
Created by potrace 1.13, written by Peter Selinger 2001-2015
</metadata>
<g transform="translate(0.000000,163.000000) scale(0.100000,-0.100000)"
fill="#000000" stroke="none">
<path d="M30 830 l0 -740 135 0 135 0 0 35 0 35 -85 0 -85 0 0 670 0 670 85 0
85 0 0 35 0 35 -135 0 -135 0 0 -740z"/>
<path d="M1830 1535 l0 -35 85 0 85 0 0 -670 0 -670 -85 0 -85 0 0 -35 0 -35
135 0 135 0 0 740 0 740 -135 0 -135 0 0 -35z"/>
<path d="M720 1054 c-151 -55 -288 -234 -298 -389 -5 -83 11 -126 58 -150 71
-37 155 -8 260 91 l66 63 -14 -60 c-25 -101 15 -138 94 -90 49 30 105 111 77
111 -5 0 -18 -16 -31 -35 -12 -19 -29 -35 -38 -35 -20 0 -14 30 57 277 33 111
59 208 59 216 0 11 -8 13 -38 7 -50 -9 -62 -17 -62 -41 0 -26 -6 -24 -38 12
-34 38 -88 46 -152 23z m104 -25 c83 -38 48 -235 -64 -362 -48 -54 -138 -102
-175 -93 -13 3 -34 16 -46 29 -52 54 14 256 118 361 68 70 116 88 167 65z"/>
<path d="M1093 665 c-59 -27 -65 -35 -26 -32 24 2 28 -2 35 -38 9 -50 10 -301
2 -345 -5 -23 -15 -36 -38 -46 -29 -12 -24 -13 64 -13 85 0 93 1 71 13 -14 8
-28 22 -32 32 -4 11 -8 117 -8 237 -1 119 -4 217 -8 217 -5 0 -32 -11 -60 -25z"/>
<path d="M1463 665 c-59 -27 -65 -35 -26 -32 24 2 28 -2 35 -38 9 -50 10 -301
2 -345 -5 -23 -15 -36 -38 -46 -29 -12 -24 -13 64 -13 85 0 93 1 71 13 -14 8
-28 22 -32 32 -4 11 -8 117 -8 237 -1 119 -4 217 -8 217 -5 0 -32 -11 -60 -25z"/>
</g>
</svg>
